<?xml version="1.0" encoding="utf-8"?>
<!-- Generator: Adobe Illustrator 25.2.1, SVG Export Plug-In . SVG Version: 6.00 Build 0)  -->
<svg version="1.1" id="Capa_1" xmlns="http://www.w3.org/2000/svg" xmlns:xlink="http://www.w3.org/1999/xlink" x="0px" y="0px"
	 viewBox="0 0 50.1 25.1" style="enable-background:new 0 0 50.1 25.1;" xml:space="preserve">
<style type="text/css">
	.st0{fill:#D38387;}
	.st1{fill:#DAA496;}
	.st2{fill:#E1C0A3;}
	.st3{fill:#E8D8B0;}
	.st4{fill:#EEEEBB;}
	.st5{fill:#F1F1CA;}
	.st6{fill:#F5F5D9;}
	.st7{fill:#F8F8E6;}
	.st8{fill:#FCFCF3;}
	.st9{fill:#FFFFFF;}
	
	 <!-- @media (prefers-color-scheme: dark) {
		.st0{fill:#603C3E;}
		.st1{fill:#4F3334;}
		.st2{fill:#3F2B2A;}
		.st3{fill:#2F2221;}
		.st4{fill:#201A18;}
		.st5{fill:#11110D;}
		.st6{fill:#1B1B19;}
		.st7{fill:#242423;}
		.st8{fill:#2E2E2D;}
		.st9{fill:#383838;}
		.st10{fill:#434343;}
	 } -->
</style>
<g>
	<path class="st0" d="M12.4,21.5C9.5,21,6.6,21,3.7,21.6c-1.2,0.2-2.5,0.5-3.7,0.9v2.6h26.4C22.7,24.2,17.8,22.3,12.4,21.5z"/>
	<path class="st1" d="M26.4,25.1H50V0H0v22.5c1.5-0.5,3.1-0.8,4.7-1c3.5-0.4,7.1-0.2,10.5,0.6C20.1,23.2,23.4,24.5,26.4,25.1z"/>
	<path class="st2" d="M14.9,18.2c0.1,0,0.2,0.1,0.3,0.1c6.1,1.6,12.1,4.2,18.5,5.5c5.4,1.1,10.9,0.9,16.2-0.3V0H0v18
		c1.6-0.5,3.3-0.9,5-1C8.4,16.8,11.7,17.2,14.9,18.2z"/>
	<path class="st3" d="M0,0v13.4c1.7-0.6,3.6-0.9,5.4-0.9c3.2,0.1,6.4,0.6,9.4,1.7c0.1,0,0.2,0.1,0.3,0.1c5.7,1.9,11.4,4.6,17.6,6
		c5.7,1.3,11.7,1.2,17.4-0.4V0H0z"/>
	<path class="st4" d="M5.7,8.1c3,0.3,6,1,8.8,2.3c0.1,0,0.2,0.1,0.3,0.1c5.3,2.2,10.7,5,16.6,6.5c6.2,1.5,12.6,1.4,18.7-0.5V0H0v8.9
		C1.8,8.2,3.8,8,5.7,8.1z"/>
	<path class="st5" d="M50,0H0v4.3c1.9-0.7,4-0.9,6-0.6c2.9,0.5,5.6,1.4,8.2,2.8c0.1,0,0.1,0,0.2,0.1c4.9,2.5,10,5.3,15.6,7
		c6.5,1.8,13.5,1.6,19.9-0.5C49.9,13.1,50,0,50,0z"/>
	<path class="st6" d="M14.2,2.7c4.6,2.8,9.3,5.7,14.7,7.5c6.5,2,13.5,2,19.9-0.2c0.4-0.1,0.8-0.3,1.2-0.4V0H9c1.7,0.7,3.4,1.6,5,2.6
		C14.1,2.6,14.1,2.7,14.2,2.7z"/>
	<path class="st7" d="M50,0H15.6c3.7,2.8,7.8,5.1,12.1,6.8c6,2.1,12.5,2.4,18.6,0.7c1.3-0.3,2.6-0.8,3.8-1.3L50,0L50,0z"/>
	<path class="st8" d="M43.7,4.8c1.5-0.3,2.9-0.8,4.3-1.3c0.7-0.3,1.3-0.6,2-0.9V0H20.1c2,1.3,4.1,2.4,6.3,3.4
		C31.9,5.6,37.9,6.1,43.7,4.8z"/>
	<path class="st9" d="M41.1,2.3C43.5,1.9,45.8,1.1,48,0H25.3C30.2,2.3,35.7,3.1,41.1,2.3z"/>
</g>
</svg>
