<svg id="Capa_1" data-name="Capa 1" xmlns="http://www.w3.org/2000/svg" viewBox="0 0 50 50"><defs><style>.cls-1{fill:#3c3c3b;}</style></defs><path class="cls-1" d="M2.5,13.09a1.76,1.76,0,0,0,.44.89,1.64,1.64,0,0,0,.6.38H46.28a1.47,1.47,0,0,0,.85-.46,1.53,1.53,0,0,0,.37-.73V5.43a1.76,1.76,0,0,0-.41-.75,1.67,1.67,0,0,0-.79-.47H3.68A1.62,1.62,0,0,0,3,4.57a1.58,1.58,0,0,0-.49.83Z"/><path class="cls-1" d="M45.42,16.79a1.68,1.68,0,0,0-.89-.38l-39.09,0a1.8,1.8,0,0,0-.68.33,1.91,1.91,0,0,0-.67,1V44.27a2,2,0,0,0,.48,1,2.11,2.11,0,0,0,.72.53H44.57a2.18,2.18,0,0,0,.88-.52,2,2,0,0,0,.51-.81V17.86A1.32,1.32,0,0,0,45.42,16.79ZM30.34,23.61a2,2,0,0,1-1.24,1.23H20.78a2.07,2.07,0,0,1-.93-1.12,2,2,0,0,1,.07-1.41,1.91,1.91,0,0,1,.88-.91l8.31,0a1.94,1.94,0,0,1,1.16,1.07A1.76,1.76,0,0,1,30.34,23.61Z"/></svg>