<?xml version="1.0" encoding="utf-8"?>
<!-- Generator: Adobe Illustrator 25.2.1, SVG Export Plug-In . SVG Version: 6.00 Build 0)  -->
<svg version="1.1" id="Capa_1" xmlns="http://www.w3.org/2000/svg" xmlns:xlink="http://www.w3.org/1999/xlink" x="0px" y="0px"
	 viewBox="0 0 50 25" style="enable-background:new 0 0 50 25;" xml:space="preserve">
<style type="text/css">
	.st0{fill:#603C3E;}
	.st1{fill:#4F3334;}
	.st2{fill:#3F2B2A;}
	.st3{fill:#2F2221;}
	.st4{fill:#201A18;}
	.st5{fill:#11110D;}
	.st6{fill:#1B1B19;}
	.st7{fill:#242423;}
	.st8{fill:#2E2E2D;}
	.st9{fill:#383838;}
	.st10{fill:#434343;}
</style>
<rect class="st0" width="50" height="25"/>
<g>
	<path class="st1" d="M15.2,22.1c-3.4-0.7-7-1-10.5-0.6c-1.6,0.2-3.2,0.5-4.7,1V25h26.4c-3.6-1-7.2-2.1-10.9-2.9
		C15.4,22.1,15.3,22.1,15.2,22.1z"/>
	<path class="st2" d="M50,0H0v22.5c1.5-0.5,3.1-0.9,4.7-1c3.5-0.4,7.1-0.1,10.5,0.6c0.1,0,0.2,0,0.3,0.1c3.6,0.8,7.2,1.8,10.9,2.9
		H50V0z"/>
	<path class="st3" d="M14.9,18.2c0.1,0,0.2,0.1,0.3,0.1c6.1,1.6,12.1,4.2,18.5,5.5c5.4,1.1,10.9,0.9,16.2-0.3V0H0v18
		c1.6-0.5,3.3-0.9,5-1C8.4,16.8,11.7,17.3,14.9,18.2z"/>
	<path class="st4" d="M0,0v13.4c1.7-0.6,3.5-0.9,5.4-0.9c3.2,0,6.3,0.7,9.4,1.7c0.1,0,0.2,0.1,0.3,0.1c5.7,1.9,11.4,4.6,17.6,6
		c5.8,1.4,11.8,1.1,17.4-0.4V0H0z"/>
	<path class="st5" d="M5.7,8.1c3.1,0.2,6,1.1,8.8,2.3c0.1,0,0.2,0.1,0.3,0.1c5.3,2.2,10.7,5,16.6,6.5c6.2,1.6,12.6,1.3,18.7-0.5V0H0
		v8.9C1.8,8.2,3.8,8,5.7,8.1z"/>
	<path class="st6" d="M50,0H0v4.3c1.9-0.7,4-0.9,6-0.6c2.9,0.4,5.6,1.5,8.2,2.8c0.1,0,0.2,0.1,0.2,0.1c4.9,2.5,10,5.3,15.6,7
		c6.6,1.9,13.5,1.5,19.9-0.5L50,0L50,0z"/>
	<path class="st7" d="M14.2,2.7c4.6,2.8,9.3,5.7,14.7,7.5c6.5,2.1,13.5,1.9,19.9-0.2c0.4-0.1,0.8-0.3,1.2-0.4V0H9
		c1.8,0.7,3.4,1.6,5,2.6C14.1,2.6,14.1,2.7,14.2,2.7z"/>
	<path class="st8" d="M50,0H15.6c3.7,2.7,7.6,5.1,12.1,6.8c6,2.2,12.5,2.3,18.6,0.7c1.3-0.3,2.5-0.8,3.8-1.3L50,0L50,0z"/>
	<path class="st9" d="M43.7,4.8C45.1,4.5,46.6,4,48,3.5c0.7-0.3,1.3-0.6,2-0.9V0H20.1c2,1.3,4.1,2.4,6.3,3.4
		C31.9,5.6,37.9,6.1,43.7,4.8z"/>
	<path class="st10" d="M41.1,2.3c2.4-0.4,4.7-1.2,6.8-2.3H25.3C30.2,2.2,35.8,3.2,41.1,2.3z"/>
</g>
</svg>
