<svg id="Capa_1" data-name="Capa 1" xmlns="http://www.w3.org/2000/svg" viewBox="0 0 50 50"><defs><style>.cls-1{fill:#fff;}</style></defs><path class="cls-1" d="M13.73,28.2l25.58-16c.44-.13.81-.08.93.12a.28.28,0,0,1,0,.16c0,.34-.38.6-.43.64-.42.32-8.62,7.75-20,18.11l-.7,11.08.89,0,6.5-6.08a.12.12,0,0,1,.14,0,.09.09,0,0,1,0,.07L38.6,44.86a1.24,1.24,0,0,0,.52.09,1.37,1.37,0,0,0,.45-.1l1.3-1.13a1.81,1.81,0,0,0,.21-.44,1.64,1.64,0,0,0,.07-.44c4.26-19.68,7.33-34.06,7.48-34.92a2.17,2.17,0,0,0-.11-1.31,2.59,2.59,0,0,0-.39-.6,2.79,2.79,0,0,0-.86-.81,2.22,2.22,0,0,0-1.63,0c-1.25.43-18.91,7.25-43,16.65a1.66,1.66,0,0,0-1.26,1.23,1.46,1.46,0,0,0,.1.77l.42.47L12.3,27.78Z"/></svg>